<svg width="275" height="58" viewBox="0 0 275 58" fill="none" xmlns="http://www.w3.org/2000/svg">
<path d="M67.7235 19.6712C68.2977 20.2454 68.9651 20.711 69.7255 21.0679C70.4859 21.4093 71.2851 21.58 72.1231 21.58C73.2094 21.58 74.0475 21.355 74.6372 20.905C75.2269 20.4394 75.5217 19.8342 75.5217 19.0893C75.5217 18.7013 75.4519 18.3754 75.3122 18.1116C75.1726 17.8322 74.9786 17.5995 74.7303 17.4132C74.482 17.2115 74.1871 17.033 73.8457 16.8778C73.5198 16.7226 73.1629 16.5597 72.7749 16.389L70.5868 15.4346C70.1988 15.2794 69.8108 15.0932 69.4229 14.8759C69.0349 14.6586 68.678 14.3948 68.3521 14.0845C68.0417 13.7741 67.7856 13.4094 67.5839 12.9904C67.3821 12.5558 67.2813 12.0592 67.2813 11.5006C67.2813 10.9264 67.4054 10.391 67.6537 9.89438C67.902 9.39777 68.2434 8.97101 68.678 8.61408C69.128 8.24162 69.6556 7.95453 70.2609 7.75278C70.8816 7.55104 71.5567 7.45017 72.2861 7.45017C73.2482 7.45017 74.1328 7.62863 74.9398 7.98556C75.7468 8.32698 76.4296 8.77702 76.9883 9.3357L75.964 10.5927C75.4674 10.1427 74.9165 9.7935 74.3113 9.5452C73.7216 9.28138 73.0465 9.14947 72.2861 9.14947C71.3549 9.14947 70.6178 9.35122 70.0746 9.75471C69.5315 10.1427 69.2599 10.6858 69.2599 11.3842C69.2599 11.7566 69.3375 12.0748 69.4927 12.3386C69.6634 12.5869 69.8729 12.8119 70.1212 13.0137C70.385 13.1999 70.6799 13.3628 71.0058 13.5025C71.3317 13.6422 71.6576 13.7818 71.9835 13.9215L74.1251 14.8526C74.5906 15.0389 75.0251 15.2561 75.4286 15.5044C75.8476 15.7372 76.2046 16.0165 76.4994 16.3424C76.8098 16.6528 77.0503 17.0253 77.2211 17.4598C77.4073 17.8788 77.5004 18.3676 77.5004 18.9263C77.5004 19.5315 77.3762 20.098 77.1279 20.6256C76.8796 21.1533 76.5227 21.6188 76.0571 22.0223C75.5916 22.4103 75.0251 22.7207 74.3578 22.9534C73.6905 23.1707 72.9379 23.2793 72.0998 23.2793C70.9825 23.2793 69.9505 23.0776 69.0038 22.6741C68.0727 22.2706 67.258 21.7197 66.5596 21.0214L67.7235 19.6712ZM81.4253 6.42593H83.3341V17.646H83.4272L89.5261 11.6868H91.7143L87.1983 16.1795L92.3195 23H90.1779L86.0111 17.3434L83.3341 19.9273V23H81.4253V6.42593ZM94.871 26.1193C95.0262 26.1658 95.1892 26.2046 95.3599 26.2357C95.5461 26.2667 95.7245 26.2822 95.8953 26.2822C96.6867 26.2822 97.3307 26.0494 97.8273 25.5839C98.3239 25.1338 98.7119 24.5596 98.9913 23.8613L99.3404 23.0233L94.0563 11.6868H95.9884L98.7585 17.9486C98.9757 18.4452 99.2008 18.9806 99.4335 19.5548C99.6818 20.129 99.9224 20.6877 100.155 21.2309H100.248C100.45 20.6877 100.652 20.1368 100.854 19.5781C101.071 19.0039 101.273 18.4608 101.459 17.9486L103.926 11.6868H105.742L100.76 23.9311C100.543 24.4898 100.295 25.0097 100.015 25.4908C99.7362 25.9718 99.4025 26.3831 99.0145 26.7245C98.6266 27.0814 98.1765 27.3608 97.6644 27.5625C97.1678 27.7643 96.6014 27.8651 95.9651 27.8651C95.4064 27.8651 94.9098 27.7875 94.4753 27.6324L94.871 26.1193ZM111.925 13.7353C112.67 13.3318 113.244 12.8274 113.647 12.2222C114.066 11.6014 114.299 10.8798 114.346 10.0573C114.16 10.1504 113.958 10.197 113.741 10.197C113.244 10.197 112.84 10.0496 112.53 9.75471C112.235 9.44433 112.088 9.04084 112.088 8.54424C112.088 8.00108 112.251 7.56656 112.577 7.24066C112.903 6.89925 113.314 6.72854 113.81 6.72854C114.431 6.72854 114.935 6.97684 115.323 7.47344C115.711 7.97004 115.905 8.66063 115.905 9.5452C115.905 10.7091 115.611 11.7489 115.021 12.6645C114.431 13.5801 113.616 14.3095 112.577 14.8526L111.925 13.7353ZM123.438 20.2532C124.075 20.7187 124.758 21.0912 125.487 21.3705C126.216 21.6499 127.093 21.7895 128.117 21.7895C129.142 21.7895 129.902 21.6188 130.399 21.2774C130.895 20.936 131.144 20.517 131.144 20.0204C131.144 19.5859 130.872 19.1979 130.329 18.8565C129.801 18.5151 128.847 18.1737 127.466 17.8322C126.876 17.6926 126.317 17.5219 125.79 17.3201C125.277 17.1184 124.827 16.8856 124.439 16.6218C124.051 16.3424 123.741 16.0398 123.508 15.7139C123.276 15.388 123.159 15.0233 123.159 14.6198C123.159 14.1698 123.26 13.7508 123.462 13.3628C123.663 12.9593 123.958 12.6179 124.346 12.3386C124.75 12.0437 125.246 11.8187 125.836 11.6635C126.441 11.4928 127.132 11.4075 127.908 11.4075C128.761 11.4075 129.592 11.5549 130.399 11.8497C131.206 12.1291 131.888 12.4627 132.447 12.8507L131.516 14.0845C131.019 13.7275 130.468 13.4404 129.863 13.2232C129.258 13.0059 128.606 12.8973 127.908 12.8973C127.38 12.8973 126.938 12.9438 126.581 13.0369C126.224 13.1145 125.937 13.2309 125.72 13.3861C125.502 13.5258 125.347 13.6965 125.254 13.8982C125.161 14.1 125.114 14.3095 125.114 14.5267C125.114 14.9923 125.433 15.3803 126.069 15.6906C126.705 15.9855 127.535 16.2648 128.56 16.5287C130.096 16.9166 131.229 17.3589 131.958 17.8555C132.703 18.3521 133.076 19.0349 133.076 19.904C133.076 20.3696 132.967 20.8041 132.75 21.2076C132.532 21.6111 132.207 21.968 131.772 22.2784C131.353 22.5888 130.825 22.8293 130.189 23C129.568 23.1862 128.855 23.2793 128.048 23.2793C126.93 23.2793 125.898 23.1086 124.952 22.7672C124.02 22.4103 123.206 21.9913 122.507 21.5102L123.438 20.2532ZM150.283 15.3648C150.283 14.1388 150.446 13.0369 150.772 12.0592C151.114 11.0816 151.587 10.2513 152.192 9.56848C152.797 8.88565 153.519 8.36577 154.357 8.00884C155.195 7.63639 156.111 7.45017 157.104 7.45017C158.035 7.45017 158.85 7.63639 159.548 8.00884C160.246 8.38129 160.821 8.81582 161.271 9.31242L160.177 10.5462C159.773 10.1272 159.323 9.7935 158.826 9.5452C158.33 9.28138 157.756 9.14947 157.104 9.14947C156.374 9.14947 155.707 9.2969 155.102 9.59176C154.512 9.8711 154.008 10.2823 153.589 10.8255C153.17 11.3531 152.844 11.9972 152.611 12.7576C152.394 13.518 152.285 14.3715 152.285 15.3182C152.285 16.2804 152.394 17.1494 152.611 17.9254C152.844 18.6858 153.17 19.3376 153.589 19.8807C154.008 20.4239 154.512 20.8429 155.102 21.1377C155.707 21.4326 156.374 21.58 157.104 21.58C157.802 21.58 158.423 21.4326 158.966 21.1377C159.509 20.8429 160.029 20.4239 160.526 19.8807L161.643 21.0679C161.038 21.7663 160.355 22.3094 159.595 22.6974C158.834 23.0854 157.965 23.2793 156.987 23.2793C156.025 23.2793 155.133 23.1009 154.31 22.7439C153.503 22.387 152.797 21.8749 152.192 21.2076C151.602 20.5248 151.137 19.6945 150.795 18.7168C150.454 17.7236 150.283 16.6063 150.283 15.3648ZM164.101 17.3667C164.101 16.42 164.249 15.582 164.544 14.8526C164.854 14.1077 165.265 13.4792 165.777 12.9671C166.29 12.455 166.879 12.067 167.547 11.8032C168.229 11.5394 168.943 11.4075 169.688 11.4075C170.433 11.4075 171.139 11.5394 171.807 11.8032C172.489 12.067 173.087 12.455 173.599 12.9671C174.111 13.4792 174.515 14.1077 174.809 14.8526C175.12 15.582 175.275 16.42 175.275 17.3667C175.275 18.2978 175.12 19.1358 174.809 19.8807C174.515 20.6101 174.111 21.2309 173.599 21.743C173.087 22.2396 172.489 22.6198 171.807 22.8836C171.139 23.1474 170.433 23.2793 169.688 23.2793C168.943 23.2793 168.229 23.1474 167.547 22.8836C166.879 22.6198 166.29 22.2396 165.777 21.743C165.265 21.2309 164.854 20.6101 164.544 19.8807C164.249 19.1358 164.101 18.2978 164.101 17.3667ZM166.08 17.3667C166.08 18.0185 166.165 18.6082 166.336 19.1358C166.507 19.6635 166.747 20.1213 167.058 20.5092C167.384 20.8817 167.764 21.1765 168.198 21.3938C168.648 21.5955 169.145 21.6964 169.688 21.6964C170.231 21.6964 170.72 21.5955 171.155 21.3938C171.605 21.1765 171.985 20.8817 172.295 20.5092C172.621 20.1213 172.87 19.6635 173.04 19.1358C173.211 18.6082 173.296 18.0185 173.296 17.3667C173.296 16.7149 173.211 16.1252 173.04 15.5975C172.87 15.0544 172.621 14.5888 172.295 14.2008C171.985 13.8129 171.605 13.518 171.155 13.3163C170.72 13.099 170.231 12.9904 169.688 12.9904C169.145 12.9904 168.648 13.099 168.198 13.3163C167.764 13.518 167.384 13.8129 167.058 14.2008C166.747 14.5888 166.507 15.0544 166.336 15.5975C166.165 16.1252 166.08 16.7149 166.08 17.3667ZM189.675 8.24162C189.21 8.02436 188.775 7.88469 188.372 7.82262C187.984 7.74502 187.541 7.70623 187.045 7.70623C186.02 7.70623 185.283 7.97005 184.833 8.49768C184.399 9.0098 184.181 9.73143 184.181 10.6626V11.6868H188.93V13.2464H184.181V23H182.296V13.2464H179.06V11.8032L182.296 11.6868V10.7324C182.296 9.35122 182.661 8.24162 183.39 7.40361C184.135 6.56559 185.291 6.14659 186.858 6.14659C187.976 6.14659 189.062 6.36385 190.117 6.79838L189.675 8.24162ZM203.633 8.24162C203.167 8.02436 202.733 7.88469 202.329 7.82262C201.941 7.74502 201.499 7.70623 201.002 7.70623C199.978 7.70623 199.241 7.97005 198.791 8.49768C198.357 9.0098 198.139 9.73143 198.139 10.6626V11.6868H202.888V13.2464H198.139V23H196.254V13.2464H193.018V11.8032L196.254 11.6868V10.7324C196.254 9.35122 196.618 8.24162 197.348 7.40361C198.093 6.56559 199.249 6.14659 200.816 6.14659C201.934 6.14659 203.02 6.36385 204.075 6.79838L203.633 8.24162ZM206.184 17.3667C206.184 16.4355 206.347 15.6053 206.673 14.8759C206.999 14.131 207.426 13.5025 207.954 12.9904C208.497 12.4783 209.11 12.0903 209.793 11.8265C210.491 11.5471 211.205 11.4075 211.934 11.4075C212.741 11.4075 213.463 11.5394 214.099 11.8032C214.735 12.0515 215.271 12.4084 215.705 12.874C216.155 13.3395 216.497 13.8982 216.729 14.55C216.962 15.2018 217.079 15.9234 217.079 16.7149C217.079 16.9166 217.071 17.1184 217.055 17.3201C217.055 17.5063 217.04 17.6693 217.009 17.809H208.163C208.179 18.4142 208.295 18.9574 208.512 19.4384C208.745 19.9195 209.048 20.3308 209.42 20.6722C209.808 21.0136 210.258 21.2774 210.77 21.4636C211.298 21.6499 211.872 21.743 212.493 21.743C213.16 21.743 213.765 21.6499 214.309 21.4636C214.867 21.2774 215.41 21.0214 215.938 20.6955L216.613 21.9525C216.054 22.3094 215.418 22.6198 214.704 22.8836C213.99 23.1474 213.176 23.2793 212.26 23.2793C211.422 23.2793 210.631 23.1474 209.886 22.8836C209.156 22.6043 208.512 22.2163 207.954 21.7197C207.41 21.2076 206.976 20.5868 206.65 19.8574C206.34 19.1281 206.184 18.2978 206.184 17.3667ZM215.309 16.4355C215.309 15.3027 215.015 14.4336 214.425 13.8284C213.835 13.2232 213.013 12.9205 211.957 12.9205C211.492 12.9205 211.042 12.9981 210.607 13.1533C210.188 13.3085 209.808 13.5413 209.467 13.8517C209.125 14.1465 208.838 14.5112 208.605 14.9457C208.373 15.3803 208.217 15.8769 208.14 16.4355H215.309ZM220.142 17.3667C220.142 16.4355 220.305 15.6053 220.631 14.8759C220.957 14.131 221.384 13.5025 221.911 12.9904C222.455 12.4783 223.068 12.0903 223.75 11.8265C224.449 11.5471 225.163 11.4075 225.892 11.4075C226.699 11.4075 227.421 11.5394 228.057 11.8032C228.693 12.0515 229.229 12.4084 229.663 12.874C230.113 13.3395 230.454 13.8982 230.687 14.55C230.92 15.2018 231.036 15.9234 231.036 16.7149C231.036 16.9166 231.029 17.1184 231.013 17.3201C231.013 17.5063 230.998 17.6693 230.967 17.809H222.121C222.136 18.4142 222.253 18.9574 222.47 19.4384C222.703 19.9195 223.005 20.3308 223.378 20.6722C223.766 21.0136 224.216 21.2774 224.728 21.4636C225.256 21.6499 225.83 21.743 226.451 21.743C227.118 21.743 227.723 21.6499 228.266 21.4636C228.825 21.2774 229.368 21.0214 229.896 20.6955L230.571 21.9525C230.012 22.3094 229.376 22.6198 228.662 22.8836C227.948 23.1474 227.133 23.2793 226.218 23.2793C225.38 23.2793 224.588 23.1474 223.843 22.8836C223.114 22.6043 222.47 22.2163 221.911 21.7197C221.368 21.2076 220.934 20.5868 220.608 19.8574C220.297 19.1281 220.142 18.2978 220.142 17.3667ZM229.267 16.4355C229.267 15.3027 228.972 14.4336 228.383 13.8284C227.793 13.2232 226.971 12.9205 225.915 12.9205C225.45 12.9205 225 12.9981 224.565 13.1533C224.146 13.3085 223.766 13.5413 223.424 13.8517C223.083 14.1465 222.796 14.5112 222.563 14.9457C222.33 15.3803 222.175 15.8769 222.098 16.4355H229.267ZM249.292 18.9263C249.292 19.3453 249.369 19.7333 249.524 20.0902C249.68 20.4316 249.889 20.7265 250.153 20.9748C250.417 21.2231 250.727 21.4171 251.084 21.5568C251.441 21.6809 251.821 21.743 252.225 21.743C252.706 21.743 253.171 21.6343 253.621 21.4171C254.071 21.1998 254.498 20.905 254.902 20.5325C254.157 19.8807 253.451 19.1669 252.783 18.3909C252.132 17.615 251.542 16.808 251.014 15.97C250.518 16.4045 250.106 16.8623 249.78 17.3434C249.455 17.809 249.292 18.3366 249.292 18.9263ZM250.921 11.035C250.921 11.454 250.983 11.8885 251.107 12.3386C251.231 12.7886 251.402 13.2464 251.619 13.712C251.945 13.4792 252.248 13.2464 252.527 13.0137C252.822 12.7654 253.078 12.5171 253.295 12.2688C253.528 12.0049 253.707 11.7334 253.831 11.454C253.955 11.1592 254.017 10.841 254.017 10.4996C254.017 10.0496 253.908 9.66159 253.691 9.3357C253.489 8.99429 253.133 8.82358 252.62 8.82358C252.077 8.82358 251.658 9.03308 251.363 9.45209C251.069 9.8711 250.921 10.3987 250.921 11.035ZM259.348 23.2793C258.339 22.969 257.276 22.387 256.159 21.5335C255.6 22.0766 254.979 22.5034 254.296 22.8138C253.629 23.1242 252.861 23.2793 251.992 23.2793C251.309 23.2793 250.688 23.1785 250.13 22.9767C249.571 22.7595 249.09 22.4646 248.686 22.0922C248.298 21.7197 247.988 21.2774 247.755 20.7653C247.538 20.2377 247.429 19.6635 247.429 19.0427C247.429 18.5461 247.507 18.0883 247.662 17.6693C247.817 17.2503 248.027 16.8701 248.291 16.5287C248.57 16.1717 248.88 15.8458 249.222 15.551C249.563 15.2406 249.92 14.9457 250.293 14.6664C249.967 14.0301 249.711 13.4094 249.524 12.8042C249.354 12.1834 249.268 11.6014 249.268 11.0583C249.268 10.5462 249.346 10.0728 249.501 9.63832C249.672 9.20379 249.897 8.82358 250.176 8.49768C250.471 8.17179 250.82 7.91573 251.224 7.7295C251.643 7.54328 252.108 7.45017 252.62 7.45017C253.567 7.45017 254.296 7.7295 254.809 8.28818C255.321 8.84686 255.577 9.57624 255.577 10.4763C255.577 10.9729 255.476 11.423 255.274 11.8265C255.088 12.23 254.84 12.6179 254.529 12.9904C254.219 13.3473 253.87 13.6887 253.482 14.0146C253.094 14.325 252.698 14.6354 252.295 14.9457C252.791 15.7372 253.358 16.4976 253.994 17.227C254.646 17.9564 255.321 18.6237 256.019 19.2289C256.454 18.6082 256.826 17.9331 257.136 17.2037C257.462 16.4588 257.734 15.6441 257.951 14.7595H259.72C259.441 15.7682 259.1 16.7304 258.696 17.646C258.293 18.5616 257.811 19.4229 257.253 20.2299C258.184 20.9438 259.061 21.4326 259.883 21.6964L259.348 23.2793ZM66.9786 36.7295H70.7032C73.0155 36.7295 74.7691 37.3813 75.964 38.6849C77.1745 39.9885 77.7797 41.8585 77.7797 44.2949C77.7797 45.5054 77.6245 46.5917 77.3142 47.5539C77.0193 48.5005 76.577 49.3075 75.9873 49.9748C75.3976 50.6266 74.6682 51.1309 73.7992 51.4879C72.9301 51.8293 71.9291 52 70.7963 52H66.9786V36.7295ZM70.5868 50.4171C72.3249 50.4171 73.6207 49.8817 74.4742 48.8109C75.3433 47.7401 75.7778 46.2348 75.7778 44.2949C75.7778 42.3551 75.3433 40.873 74.4742 39.8488C73.6207 38.8245 72.3249 38.3124 70.5868 38.3124H68.9107V50.4171H70.5868ZM80.564 46.3667C80.564 45.4355 80.727 44.6053 81.0529 43.8759C81.3788 43.131 81.8055 42.5025 82.3332 41.9904C82.8763 41.4783 83.4893 41.0903 84.1721 40.8265C84.8705 40.5471 85.5844 40.4075 86.3137 40.4075C87.1207 40.4075 87.8423 40.5394 88.4786 40.8032C89.1149 41.0515 89.6503 41.4084 90.0848 41.874C90.5348 42.3395 90.8763 42.8982 91.109 43.55C91.3418 44.2018 91.4582 44.9234 91.4582 45.7149C91.4582 45.9166 91.4505 46.1184 91.4349 46.3201C91.4349 46.5063 91.4194 46.6693 91.3884 46.809H82.5427C82.5582 47.4142 82.6746 47.9574 82.8918 48.4384C83.1246 48.9195 83.4272 49.3308 83.7997 49.6722C84.1877 50.0136 84.6377 50.2774 85.1498 50.4636C85.6775 50.6499 86.2517 50.743 86.8724 50.743C87.5397 50.743 88.145 50.6499 88.6881 50.4636C89.2468 50.2774 89.7899 50.0214 90.3176 49.6955L90.9927 50.9525C90.434 51.3094 89.7977 51.6198 89.0838 51.8836C88.37 52.1474 87.5552 52.2793 86.6396 52.2793C85.8016 52.2793 85.0102 52.1474 84.2653 51.8836C83.5359 51.6043 82.8918 51.2163 82.3332 50.7197C81.79 50.2076 81.3555 49.5868 81.0296 48.8574C80.7192 48.1281 80.564 47.2978 80.564 46.3667ZM89.6891 45.4355C89.6891 44.3027 89.3942 43.4336 88.8045 42.8284C88.2148 42.2232 87.3923 41.9205 86.337 41.9205C85.8714 41.9205 85.4214 41.9981 84.9869 42.1533C84.5679 42.3085 84.1877 42.5413 83.8462 42.8517C83.5048 43.1465 83.2177 43.5112 82.985 43.9457C82.7522 44.3803 82.597 44.8769 82.5194 45.4355H89.6891ZM95.5228 49.2532C96.1591 49.7187 96.8419 50.0912 97.5713 50.3705C98.3007 50.6499 99.1775 50.7895 100.202 50.7895C101.226 50.7895 101.986 50.6188 102.483 50.2774C102.98 49.936 103.228 49.517 103.228 49.0204C103.228 48.5859 102.956 48.1979 102.413 47.8565C101.886 47.5151 100.931 47.1737 99.5499 46.8322C98.9602 46.6926 98.4015 46.5219 97.8739 46.3201C97.3618 46.1184 96.9117 45.8856 96.5238 45.6218C96.1358 45.3424 95.8254 45.0398 95.5926 44.7139C95.3599 44.388 95.2435 44.0233 95.2435 43.6198C95.2435 43.1698 95.3443 42.7508 95.5461 42.3628C95.7478 41.9593 96.0427 41.6179 96.4307 41.3386C96.8341 41.0437 97.3307 40.8187 97.9205 40.6635C98.5257 40.4928 99.2163 40.4075 99.9922 40.4075C100.846 40.4075 101.676 40.5549 102.483 40.8497C103.29 41.1291 103.973 41.4627 104.531 41.8507L103.6 43.0845C103.104 42.7275 102.553 42.4404 101.948 42.2232C101.342 42.0059 100.691 41.8973 99.9922 41.8973C99.4646 41.8973 99.0223 41.9438 98.6654 42.0369C98.3084 42.1145 98.0213 42.2309 97.8041 42.3861C97.5868 42.5258 97.4316 42.6965 97.3385 42.8982C97.2454 43.1 97.1988 43.3095 97.1988 43.5267C97.1988 43.9923 97.517 44.3803 98.1532 44.6906C98.7895 44.9855 99.6198 45.2648 100.644 45.5287C102.18 45.9166 103.313 46.3589 104.043 46.8555C104.788 47.3521 105.16 48.0349 105.16 48.904C105.16 49.3696 105.051 49.8041 104.834 50.2076C104.617 50.6111 104.291 50.968 103.856 51.2784C103.437 51.5888 102.91 51.8293 102.273 52C101.653 52.1862 100.939 52.2793 100.132 52.2793C99.0145 52.2793 97.9825 52.1086 97.0359 51.7672C96.1048 51.4103 95.29 50.9913 94.5917 50.5102L95.5228 49.2532ZM109.481 49.2532C110.117 49.7187 110.8 50.0912 111.529 50.3705C112.258 50.6499 113.135 50.7895 114.16 50.7895C115.184 50.7895 115.944 50.6188 116.441 50.2774C116.937 49.936 117.186 49.517 117.186 49.0204C117.186 48.5859 116.914 48.1979 116.371 47.8565C115.843 47.5151 114.889 47.1737 113.508 46.8322C112.918 46.6926 112.359 46.5219 111.832 46.3201C111.32 46.1184 110.87 45.8856 110.482 45.6218C110.094 45.3424 109.783 45.0398 109.55 44.7139C109.318 44.388 109.201 44.0233 109.201 43.6198C109.201 43.1698 109.302 42.7508 109.504 42.3628C109.706 41.9593 110.001 41.6179 110.388 41.3386C110.792 41.0437 111.289 40.8187 111.878 40.6635C112.484 40.4928 113.174 40.4075 113.95 40.4075C114.804 40.4075 115.634 40.5549 116.441 40.8497C117.248 41.1291 117.931 41.4627 118.489 41.8507L117.558 43.0845C117.062 42.7275 116.511 42.4404 115.905 42.2232C115.3 42.0059 114.648 41.8973 113.95 41.8973C113.422 41.8973 112.98 41.9438 112.623 42.0369C112.266 42.1145 111.979 42.2309 111.762 42.3861C111.545 42.5258 111.389 42.6965 111.296 42.8982C111.203 43.1 111.157 43.3095 111.157 43.5267C111.157 43.9923 111.475 44.3803 112.111 44.6906C112.747 44.9855 113.578 45.2648 114.602 45.5287C116.138 45.9166 117.271 46.3589 118 46.8555C118.745 47.3521 119.118 48.0349 119.118 48.904C119.118 49.3696 119.009 49.8041 118.792 50.2076C118.575 50.6111 118.249 50.968 117.814 51.2784C117.395 51.5888 116.868 51.8293 116.231 52C115.611 52.1862 114.897 52.2793 114.09 52.2793C112.972 52.2793 111.94 52.1086 110.994 51.7672C110.063 51.4103 109.248 50.9913 108.55 50.5102L109.481 49.2532ZM122.437 46.3667C122.437 45.4355 122.6 44.6053 122.926 43.8759C123.252 43.131 123.679 42.5025 124.207 41.9904C124.75 41.4783 125.363 41.0903 126.046 40.8265C126.744 40.5471 127.458 40.4075 128.187 40.4075C128.994 40.4075 129.716 40.5394 130.352 40.8032C130.988 41.0515 131.524 41.4084 131.958 41.874C132.408 42.3395 132.75 42.8982 132.983 43.55C133.215 44.2018 133.332 44.9234 133.332 45.7149C133.332 45.9166 133.324 46.1184 133.308 46.3201C133.308 46.5063 133.293 46.6693 133.262 46.809H124.416C124.432 47.4142 124.548 47.9574 124.765 48.4384C124.998 48.9195 125.301 49.3308 125.673 49.6722C126.061 50.0136 126.511 50.2774 127.023 50.4636C127.551 50.6499 128.125 50.743 128.746 50.743C129.413 50.743 130.018 50.6499 130.562 50.4636C131.12 50.2774 131.663 50.0214 132.191 49.6955L132.866 50.9525C132.307 51.3094 131.671 51.6198 130.957 51.8836C130.243 52.1474 129.429 52.2793 128.513 52.2793C127.675 52.2793 126.884 52.1474 126.139 51.8836C125.409 51.6043 124.765 51.2163 124.207 50.7197C123.663 50.2076 123.229 49.5868 122.903 48.8574C122.593 48.1281 122.437 47.2978 122.437 46.3667ZM131.563 45.4355C131.563 44.3027 131.268 43.4336 130.678 42.8284C130.088 42.2232 129.266 41.9205 128.21 41.9205C127.745 41.9205 127.295 41.9981 126.86 42.1533C126.441 42.3085 126.061 42.5413 125.72 42.8517C125.378 43.1465 125.091 43.5112 124.858 43.9457C124.626 44.3803 124.47 44.8769 124.393 45.4355H131.563ZM138.188 40.6868H139.771L139.934 43.3638H140.003C140.593 42.4482 141.315 41.7266 142.168 41.1989C143.037 40.6713 144 40.4075 145.055 40.4075C145.474 40.4075 145.862 40.4463 146.219 40.5238C146.576 40.5859 146.933 40.7023 147.29 40.873L146.847 42.5258C146.444 42.3861 146.102 42.2852 145.823 42.2232C145.559 42.1611 145.202 42.13 144.752 42.13C143.899 42.13 143.076 42.3783 142.285 42.8749C141.509 43.356 140.779 44.1863 140.097 45.3657V52H138.188V40.6868ZM153.542 42.2464H150.353V40.8032L153.612 40.6868L153.868 37.521H155.451V40.6868H161.015V42.2464H155.451V47.6237C155.451 48.1358 155.498 48.5859 155.591 48.9738C155.684 49.3463 155.839 49.6644 156.056 49.9282C156.274 50.1921 156.568 50.3938 156.941 50.5335C157.313 50.6576 157.771 50.7197 158.314 50.7197C158.857 50.7197 159.346 50.6731 159.781 50.58C160.215 50.4869 160.634 50.3628 161.038 50.2076L161.457 51.6043C160.945 51.7905 160.378 51.9457 159.758 52.0698C159.137 52.2095 158.516 52.2793 157.895 52.2793C157.073 52.2793 156.382 52.1707 155.824 51.9534C155.265 51.7207 154.815 51.4025 154.473 50.999C154.147 50.58 153.907 50.0834 153.752 49.5092C153.612 48.935 153.542 48.2988 153.542 47.6004V42.2464ZM179.782 36.7295H181.691V50.3472H189.256V52H179.782V36.7295ZM192.017 46.3667C192.017 45.42 192.165 44.582 192.459 43.8526C192.77 43.1077 193.181 42.4792 193.693 41.9671C194.205 41.455 194.795 41.067 195.462 40.8032C196.145 40.5394 196.859 40.4075 197.604 40.4075C198.349 40.4075 199.055 40.5394 199.722 40.8032C200.405 41.067 201.002 41.455 201.515 41.9671C202.027 42.4792 202.43 43.1077 202.725 43.8526C203.035 44.582 203.191 45.42 203.191 46.3667C203.191 47.2978 203.035 48.1358 202.725 48.8807C202.43 49.6101 202.027 50.2309 201.515 50.743C201.002 51.2396 200.405 51.6198 199.722 51.8836C199.055 52.1474 198.349 52.2793 197.604 52.2793C196.859 52.2793 196.145 52.1474 195.462 51.8836C194.795 51.6198 194.205 51.2396 193.693 50.743C193.181 50.2309 192.77 49.6101 192.459 48.8807C192.165 48.1358 192.017 47.2978 192.017 46.3667ZM193.996 46.3667C193.996 47.0185 194.081 47.6082 194.252 48.1358C194.423 48.6635 194.663 49.1213 194.973 49.5092C195.299 49.8817 195.68 50.1765 196.114 50.3938C196.564 50.5955 197.061 50.6964 197.604 50.6964C198.147 50.6964 198.636 50.5955 199.07 50.3938C199.52 50.1765 199.901 49.8817 200.211 49.5092C200.537 49.1213 200.785 48.6635 200.956 48.1358C201.127 47.6082 201.212 47.0185 201.212 46.3667C201.212 45.7149 201.127 45.1252 200.956 44.5975C200.785 44.0544 200.537 43.5888 200.211 43.2008C199.901 42.8129 199.52 42.518 199.07 42.3163C198.636 42.099 198.147 41.9904 197.604 41.9904C197.061 41.9904 196.564 42.099 196.114 42.3163C195.68 42.518 195.299 42.8129 194.973 43.2008C194.663 43.5888 194.423 44.0544 194.252 44.5975C194.081 45.1252 193.996 45.7149 193.996 46.3667ZM216.334 52H214.774L214.611 50.0214H214.518C213.944 50.6887 213.315 51.2318 212.632 51.6508C211.965 52.0698 211.189 52.2793 210.305 52.2793C208.939 52.2793 207.938 51.8991 207.302 51.1387C206.681 50.3628 206.371 49.2221 206.371 47.7168V40.6868H208.303V47.4608C208.303 48.5315 208.497 49.3308 208.885 49.8584C209.288 50.3705 209.963 50.6266 210.91 50.6266C211.562 50.6266 212.151 50.4636 212.679 50.1377C213.207 49.7963 213.789 49.2609 214.425 48.5315V40.6868H216.334V52ZM220.701 40.6868H222.284L222.447 42.6189H222.54C223.13 41.9826 223.766 41.455 224.449 41.036C225.132 40.617 225.915 40.4075 226.8 40.4075C228.15 40.4075 229.135 40.7954 229.756 41.5714C230.392 42.3318 230.711 43.4647 230.711 44.97V52H228.802V45.226C228.802 44.1552 228.6 43.3638 228.197 42.8517C227.793 42.324 227.126 42.0602 226.195 42.0602C225.853 42.0602 225.535 42.1068 225.24 42.1999C224.961 42.2775 224.682 42.4016 224.402 42.5723C224.123 42.743 223.836 42.9603 223.541 43.2241C223.246 43.4724 222.936 43.7673 222.61 44.1087V52H220.701V40.6868ZM235.823 53.8855C235.823 54.4752 236.133 54.9563 236.754 55.3288C237.39 55.7012 238.313 55.8875 239.524 55.8875C240.176 55.8875 240.765 55.8176 241.293 55.678C241.821 55.5538 242.271 55.3831 242.643 55.1658C243.016 54.9486 243.295 54.7003 243.481 54.4209C243.683 54.1416 243.784 53.8545 243.784 53.5596C243.784 53.0165 243.567 52.6518 243.132 52.4656C242.713 52.2793 242.069 52.1862 241.2 52.1862H238.988C238.663 52.1862 238.352 52.1707 238.057 52.1397C237.778 52.1242 237.514 52.0776 237.266 52C236.723 52.2949 236.343 52.5975 236.125 52.9078C235.924 53.2337 235.823 53.5596 235.823 53.8855ZM234.17 54.0718C234.17 53.6217 234.325 53.1794 234.635 52.7449C234.961 52.3104 235.427 51.9146 236.032 51.5577V51.4646C235.722 51.2939 235.45 51.0611 235.217 50.7663C234.985 50.4714 234.868 50.0834 234.868 49.6023C234.868 49.2454 234.985 48.8807 235.217 48.5083C235.45 48.1203 235.784 47.7789 236.218 47.484V47.3909C235.83 47.0961 235.497 46.7081 235.217 46.227C234.954 45.7304 234.822 45.1407 234.822 44.4579C234.822 43.8371 234.938 43.2784 235.171 42.7818C235.419 42.2852 235.745 41.8662 236.149 41.5248C236.552 41.1679 237.018 40.8963 237.545 40.7101C238.088 40.5083 238.663 40.4075 239.268 40.4075C239.889 40.4075 240.447 40.5006 240.944 40.6868H245.623V42.1533H242.597C242.86 42.4327 243.101 42.7741 243.318 43.1776C243.536 43.5811 243.644 44.0311 243.644 44.5277C243.644 45.1329 243.528 45.6761 243.295 46.1572C243.078 46.6383 242.767 47.0495 242.364 47.3909C241.976 47.7168 241.51 47.9729 240.967 48.1591C240.44 48.3298 239.873 48.4152 239.268 48.4152C238.973 48.4152 238.655 48.3841 238.313 48.322C237.988 48.2445 237.669 48.1358 237.359 47.9962C236.769 48.3686 236.474 48.8031 236.474 49.2997C236.474 49.7498 236.676 50.0834 237.08 50.3007C237.499 50.5024 238.081 50.6033 238.826 50.6033H241.363C242.822 50.6033 243.9 50.8051 244.599 51.2085C245.312 51.612 245.669 52.2949 245.669 53.257C245.669 53.7847 245.522 54.289 245.227 54.7701C244.932 55.2512 244.513 55.6702 243.97 56.0271C243.427 56.3841 242.767 56.6712 241.991 56.8884C241.215 57.1057 240.346 57.2143 239.384 57.2143C237.724 57.2143 236.436 56.9427 235.52 56.3996C234.62 55.8564 234.17 55.0805 234.17 54.0718ZM239.268 47.1349C239.997 47.1349 240.61 46.8943 241.107 46.4132C241.619 45.9322 241.875 45.2804 241.875 44.4579C241.875 44.0699 241.805 43.713 241.665 43.3871C241.526 43.0612 241.34 42.7818 241.107 42.5491C240.874 42.3163 240.595 42.1378 240.269 42.0137C239.958 41.874 239.625 41.8042 239.268 41.8042C238.911 41.8042 238.569 41.874 238.244 42.0137C237.933 42.1378 237.662 42.3163 237.429 42.5491C237.196 42.7818 237.01 43.0612 236.87 43.3871C236.731 43.713 236.661 44.0699 236.661 44.4579C236.661 45.2804 236.917 45.9322 237.429 46.4132C237.941 46.8943 238.554 47.1349 239.268 47.1349ZM248.058 46.3667C248.058 45.4355 248.221 44.6053 248.547 43.8759C248.873 43.131 249.299 42.5025 249.827 41.9904C250.37 41.4783 250.983 41.0903 251.666 40.8265C252.364 40.5471 253.078 40.4075 253.808 40.4075C254.615 40.4075 255.336 40.5394 255.972 40.8032C256.609 41.0515 257.144 41.4084 257.579 41.874C258.029 42.3395 258.37 42.8982 258.603 43.55C258.836 44.2018 258.952 44.9234 258.952 45.7149C258.952 45.9166 258.944 46.1184 258.929 46.3201C258.929 46.5063 258.913 46.6693 258.882 46.809H250.037C250.052 47.4142 250.168 47.9574 250.386 48.4384C250.619 48.9195 250.921 49.3308 251.294 49.6722C251.682 50.0136 252.132 50.2774 252.644 50.4636C253.171 50.6499 253.746 50.743 254.366 50.743C255.034 50.743 255.639 50.6499 256.182 50.4636C256.741 50.2774 257.284 50.0214 257.811 49.6955L258.487 50.9525C257.928 51.3094 257.292 51.6198 256.578 51.8836C255.864 52.1474 255.049 52.2793 254.134 52.2793C253.295 52.2793 252.504 52.1474 251.759 51.8836C251.03 51.6043 250.386 51.2163 249.827 50.7197C249.284 50.2076 248.849 49.5868 248.523 48.8574C248.213 48.1281 248.058 47.2978 248.058 46.3667ZM257.183 45.4355C257.183 44.3027 256.888 43.4336 256.298 42.8284C255.709 42.2232 254.886 41.9205 253.831 41.9205C253.365 41.9205 252.915 41.9981 252.481 42.1533C252.062 42.3085 251.682 42.5413 251.34 42.8517C250.999 43.1465 250.712 43.5112 250.479 43.9457C250.246 44.3803 250.091 44.8769 250.013 45.4355H257.183Z" fill="black"/>
<path d="M10.8379 12.7403C15.7367 14.0578 21.9885 14.7289 29.5233 14.7289C37.2214 14.7289 43.3332 14.0578 48.2086 12.7403C53.4106 11.4478 55.9067 9.70775 55.9067 8.06716C55.9067 6.89887 54.787 5.75543 52.7575 4.88542C53.224 5.20856 53.5739 5.75543 53.5739 6.352C53.5739 8.01745 51.2179 9.3846 46.4824 10.528C42.0968 11.5472 36.4982 12.2681 29.6866 12.2681C23.1082 12.2681 17.253 11.5472 13.0307 10.5778C8.48186 9.3846 6.10245 8.09202 6.10245 6.40172C6.10245 5.70571 6.40571 5.10913 7.31549 4.41313C4.46953 5.58142 2.92991 6.57572 2.92991 8.06716C3.09321 9.75746 5.6359 11.4478 10.8379 12.7403ZM21.7785 7.37116C27.0739 6.87401 28.6135 3.24483 34.8186 2.64825C37.8745 2.39968 39.8107 3.04597 40.0207 4.18941C40.2073 5.25828 38.691 5.97914 36.8481 6.12829C34.3054 6.40172 33.2557 5.43228 33.0457 4.51256C31.1562 4.73627 30.8529 5.58142 30.9463 6.178C31.1562 7.32144 33.4423 8.46488 37.3613 8.06716C41.7935 7.6943 43.2865 5.83 42.9133 3.9657C42.4467 1.52967 39.0409 -0.508633 32.9291 0.112802C25.091 0.858523 25.1377 4.73627 19.7957 5.20856C17.6029 5.43228 16.3899 4.88542 16.1799 3.9657C16.04 3.04597 17.113 2.59854 18.3727 2.49911C19.5391 2.37482 20.9621 2.59854 21.6386 2.99626C22.1285 2.72283 22.2917 2.44939 22.2451 2.12625C22.0118 1.25624 20.4022 0.88338 18.3727 1.03252C14.407 1.40539 14.407 3.29455 14.547 4.1397C14.9436 6.30229 17.9995 7.74402 21.7785 7.37116ZM48.4186 16.9164C43.5198 18.1344 37.268 18.9298 29.7332 18.9298C22.0351 18.9298 15.76 18.0847 10.8846 16.9412C6.49902 15.7481 4.16627 14.4307 3.34981 13.0635C3.7697 16.121 4.49286 19.079 5.42596 21.8879C4.30624 22.6336 3.30315 23.5533 2.39338 24.7962C0.727347 26.9594 -0.121141 29.7072 0.0139747 32.502C0.0977675 33.7766 0.436751 35.0173 1.00812 36.1407C1.5795 37.264 2.37001 38.244 3.32648 39.0146C5.35597 40.7049 7.54876 41.202 10.0448 40.7049C11.0012 40.5309 12.0743 40.0089 13.0541 39.6609C11.0012 39.6609 9.275 38.9649 7.54876 37.4983C6.61181 36.8048 5.81943 35.9125 5.22131 34.8773C4.62319 33.8422 4.23224 32.6865 4.07296 31.4828C3.60641 29.1462 4.07296 26.9836 5.30932 25.0696C5.58925 24.6967 5.89251 24.3736 6.21909 24.0753C6.91892 25.8899 7.6654 27.6796 8.50519 29.3451C10.3947 32.4025 12.2842 35.0623 14.1738 37.9457C14.9902 39.636 15.5268 41.3015 15.9 42.9669C17.1647 44.8273 19.0082 46.1487 21.102 46.6955C23.7847 47.6898 26.584 48.1373 29.4533 47.9633H29.7566C32.676 48.0993 35.594 47.6611 38.3644 46.6707C40.3735 46.0444 42.1402 44.7458 43.4031 42.9669H43.5664C43.8697 41.3015 44.3829 39.636 45.1294 37.9457C46.9956 35.0374 48.9084 32.4025 50.7746 29.3451C53.3472 24.271 55.1129 18.7776 56 13.0884C54.9969 14.5798 52.6408 15.8972 48.4186 16.9164Z" fill="black"/>
</svg>
